<svg width="18" height="18" viewBox="0 0 18 18" fill="none" xmlns="http://www.w3.org/2000/svg">
<path d="M16.6133 11.2401C16.3657 11.2401 16.165 11.4304 16.165 11.6652V15.4395C16.1641 16.1435 15.5626 16.7141 14.8202 16.7147H2.24147C1.49896 16.7141 0.897485 16.1435 0.896588 15.4395V4.36224C0.897485 3.65834 1.49901 3.08783 2.24147 3.08698H6.22187C6.46947 3.08698 6.67017 2.89667 6.67017 2.6619C6.67017 2.42725 6.46947 2.23682 6.22187 2.23682H2.24147C1.00409 2.23813 0.00138971 3.18892 0 4.36224V15.4397C0.00138971 16.6129 1.00409 17.5637 2.24147 17.5651H14.8202C16.0575 17.5637 17.0602 16.6129 17.0616 15.4397V11.6652C17.0616 11.4304 16.8609 11.2401 16.6133 11.2401Z" fill="black"/>
<path d="M16.8841 1.14329C16.0962 0.396247 14.8189 0.396247 14.0311 1.14329L6.03321 8.72708C5.97846 8.77899 5.93883 8.84346 5.91818 8.9142L4.86643 12.5147C4.84521 12.5872 4.84466 12.6637 4.86484 12.7365C4.88502 12.8092 4.92521 12.8756 4.98131 12.9288C5.0374 12.982 5.10739 13.0201 5.18412 13.0393C5.26084 13.0585 5.34156 13.058 5.41801 13.0379L9.21507 12.0404C9.28968 12.0208 9.35766 11.9832 9.4124 11.9313L17.4101 4.3474C18.1967 3.59981 18.1967 2.38968 17.4101 1.64213L16.8841 1.14329ZM7.01 9.00339L13.5557 2.79648L15.6667 4.7982L9.12088 11.0051L7.01 9.00339ZM6.58833 9.80573L8.27481 11.4051L5.94198 12.018L6.58833 9.80573ZM16.7762 3.74629L16.3008 4.19705L14.1896 2.19516L14.6652 1.74436C15.1028 1.32939 15.8124 1.32939 16.25 1.74436L16.7762 2.24315C17.2131 2.65863 17.2131 3.33098 16.7762 3.74629Z" fill="black"/>
</svg>
