<svg width="40" height="40" viewBox="0 0 40 40" fill="none" xmlns="http://www.w3.org/2000/svg">
<path d="M39.6603 38.2131L28.4274 26.9229C31.2067 23.7582 32.6459 19.6373 32.4406 15.4313C32.2353 11.2253 30.4017 7.2639 27.3273 4.38459C24.253 1.50529 20.1788 -0.0662749 15.9663 0.00214381C11.7537 0.0705626 7.73278 1.7736 4.75364 4.75122C1.7745 7.72884 0.0705986 11.7477 0.0021449 15.9581C-0.0663087 20.1686 1.50605 24.2406 4.38683 27.3134C7.2676 30.3862 11.231 32.2189 15.4391 32.4241C19.6473 32.6293 23.7703 31.1908 26.9367 28.4129L38.2325 39.682C38.3268 39.7824 38.4406 39.8624 38.567 39.9171C38.6934 39.9718 38.8297 40 38.9674 40C39.1051 40 39.2414 39.9718 39.3678 39.9171C39.4942 39.8624 39.608 39.7824 39.7023 39.682C39.8001 39.585 39.8769 39.4689 39.928 39.341C39.9792 39.2131 40.0035 39.0761 39.9996 38.9385C39.9957 38.8008 39.9635 38.6654 39.9051 38.5406C39.8468 38.4158 39.7634 38.3044 39.6603 38.2131ZM16.2497 30.3435C13.4674 30.3435 10.7476 29.5189 8.43427 27.974C6.12091 26.429 4.31786 24.2331 3.25313 21.664C2.18841 19.0948 1.90983 16.2678 2.45262 13.5404C2.99541 10.8129 4.3352 8.30766 6.30255 6.34131C8.26991 4.37496 10.7765 3.03586 13.5053 2.49334C16.2341 1.95083 19.0625 2.22926 21.633 3.29345C24.2035 4.35763 26.4005 6.15976 27.9463 8.47194C29.492 10.7841 30.317 13.5025 30.317 16.2834C30.3115 20.0107 28.8276 23.5837 26.1907 26.2193C23.5537 28.8549 19.9789 30.338 16.2497 30.3435Z" fill="white"/>
</svg>
