<svg width="24" height="20" viewBox="0 0 24 20" fill="none" xmlns="http://www.w3.org/2000/svg">
<path d="M18.9112 19.6324H1.81256C0.813116 19.6324 0.000140629 18.8489 0.000140629 17.886L0 3.25457C0 2.29154 0.813116 1.50819 1.81256 1.50819L18.9112 1.50806C19.9106 1.50806 20.7239 2.29154 20.7239 3.25457V10.8422C20.7239 11.199 20.1614 11.1989 20.1614 10.8422V3.25457C20.1614 2.59046 19.6007 2.05007 18.9113 2.05007H1.81242C1.1232 2.05007 0.562515 2.59033 0.562515 3.25457V17.886C0.562515 18.5501 1.1232 19.0902 1.81242 19.0902H18.9111C19.6003 19.0902 20.1611 18.5501 20.1611 17.886C20.1611 17.413 20.0566 16.885 20.4424 16.885C20.8281 16.885 20.7235 17.4132 20.7236 17.886C20.7239 18.849 19.9106 19.6325 18.9111 19.6325L18.9112 19.6324Z" fill="white"/>
<path d="M20.4426 5.74077H0.281247C-0.0890289 5.74077 -0.0890289 5.19875 0.281247 5.19875H20.4426C20.8129 5.19875 20.8129 5.74077 20.4426 5.74077ZM4.17329 3.46593C3.80301 3.46593 3.80301 2.92391 4.17329 2.92391C5.73455 2.92391 5.73427 0.637963 4.17329 0.637963C3.51922 0.637963 2.98694 1.15085 2.98694 1.78107C2.98694 2.13786 2.42443 2.13786 2.42443 1.78107C2.42443 0.852059 3.209 0.0959473 4.17329 0.0959473C5.13758 0.0959473 5.92187 0.851924 5.92187 1.78107C5.92187 2.71022 5.13744 3.46593 4.17329 3.46593ZM10.3619 3.46593C9.99166 3.46593 9.99166 2.92391 10.3619 2.92391C11.9233 2.92391 11.9232 0.637963 10.3619 0.637963C9.70773 0.637963 9.17574 1.15085 9.17574 1.78107C9.17574 2.13786 8.61322 2.13786 8.61322 1.78107C8.61322 0.852059 9.39765 0.0959473 10.3618 0.0959473C11.326 0.0959473 12.1107 0.851924 12.1107 1.78107C12.1107 2.71022 11.326 3.46593 10.3618 3.46593H10.3619ZM16.5507 3.46593C16.1805 3.46593 16.1806 2.92391 16.5507 2.92391C18.112 2.92391 18.1117 0.637963 16.5507 0.637963C15.8968 0.637963 15.3648 1.15085 15.3648 1.78107C15.3648 2.13786 14.8023 2.13786 14.8023 1.78107C14.8023 0.852059 15.5869 0.0959473 16.5509 0.0959473C17.5153 0.0959473 18.2997 0.851924 18.2997 1.78107C18.2997 2.71022 17.5152 3.46593 16.5507 3.46593ZM5.24179 10.2282H2.5621C2.40685 10.2282 2.28085 10.1068 2.28085 9.95724V7.37535C2.28085 7.22575 2.40685 7.10434 2.5621 7.10434H5.24179C5.39704 7.10434 5.52304 7.22575 5.52304 7.37535V9.95724C5.52304 10.1071 5.39732 10.2282 5.24179 10.2282ZM2.8435 9.68623H4.96067V7.64636H2.8435V9.68623ZM9.54854 10.2282H6.86886C6.71361 10.2282 6.5876 10.1068 6.5876 9.95724V7.37535C6.5876 7.22575 6.71361 7.10434 6.86886 7.10434H9.54854C9.7038 7.10434 9.8298 7.22575 9.8298 7.37535V9.95724C9.8298 10.1071 9.70408 10.2282 9.54854 10.2282ZM7.15012 9.68623H9.26729V7.64636H7.15012V9.68623ZM13.855 10.2282H11.1755C11.0202 10.2282 10.8942 10.1068 10.8942 9.95724V7.37535C10.8942 7.22575 11.0202 7.10434 11.1755 7.10434H13.855C14.0103 7.10434 14.1363 7.22575 14.1363 7.37535V9.95724C14.1364 10.1071 14.0103 10.2282 13.8552 10.2282H13.855ZM11.4567 9.68623H13.5738V7.64636H11.4567V9.68623ZM18.1618 10.2282H15.482C15.3267 10.2282 15.2007 10.1068 15.2007 9.95724V7.37535C15.2007 7.22575 15.3268 7.10434 15.482 7.10434H18.1619C18.3172 7.10434 18.4432 7.22575 18.4432 7.37535V9.95724C18.4432 10.1071 18.3169 10.2282 18.1618 10.2282ZM15.7632 9.68623H17.8805V7.64636H15.7632V9.68623ZM5.24179 13.9786H2.5621C2.40685 13.9786 2.28085 13.857 2.28085 13.7076V11.1253C2.28085 10.9757 2.40685 10.8543 2.5621 10.8543H5.24179C5.39704 10.8543 5.52304 10.9758 5.52304 11.1253V13.7074C5.52304 13.8569 5.39732 13.9785 5.24179 13.9785V13.9786ZM2.8435 13.4363H4.96067V11.3963H2.8435V13.4363ZM9.54854 13.9786H6.86886C6.71361 13.9786 6.5876 13.857 6.5876 13.7076V11.1253C6.5876 10.9757 6.71361 10.8543 6.86886 10.8543H9.54854C9.7038 10.8543 9.8298 10.9758 9.8298 11.1253V13.7074C9.8298 13.8569 9.70408 13.9785 9.54854 13.9785V13.9786ZM7.15012 13.4363H9.26729V11.3963H7.15012V13.4363ZM13.855 13.9786H11.1755C11.0202 13.9786 10.8942 13.857 10.8942 13.7076V11.1253C10.8942 10.9757 11.0202 10.8543 11.1755 10.8543H13.855C14.0103 10.8543 14.1363 10.9758 14.1363 11.1253V13.7074C14.1364 13.8569 14.0103 13.9785 13.8552 13.9785L13.855 13.9786ZM11.4567 13.4363H13.5738V11.3963H11.4567V13.4363ZM17.1805 13.9786H15.4822C15.327 13.9786 15.201 13.857 15.201 13.7076V11.1256C15.201 10.976 15.3271 10.8545 15.4822 10.8545H18.1621C18.5363 10.8545 18.4433 11.3356 18.4433 11.7351C18.4433 12.0918 17.8808 12.0917 17.8808 11.7351V11.3966H15.7635V13.4364H17.1805C17.5507 13.4364 17.5505 13.9787 17.1805 13.9787V13.9786ZM5.24179 17.7287H2.5621C2.40685 17.7287 2.28085 17.6071 2.28085 17.4577V14.8756C2.28085 14.726 2.40685 14.6046 2.5621 14.6046H5.24179C5.39704 14.6046 5.52304 14.7262 5.52304 14.8756V17.4577C5.52304 17.607 5.39732 17.7287 5.24179 17.7287ZM2.8435 17.1864H4.96067V15.1465H2.8435V17.1864ZM9.54854 17.7287H6.86886C6.71361 17.7287 6.5876 17.6071 6.5876 17.4577V14.8756C6.5876 14.726 6.71361 14.6046 6.86886 14.6046H9.54854C9.7038 14.6046 9.8298 14.7262 9.8298 14.8756V17.4577C9.8298 17.607 9.70408 17.7287 9.54854 17.7287ZM7.15012 17.1864H9.26729V15.1465H7.15012V17.1864ZM13.855 17.7287H11.1755C11.0202 17.7287 10.8942 17.6071 10.8942 17.4577V14.8756C10.8942 14.726 11.0202 14.6046 11.1755 14.6046H13.855C14.0103 14.6046 14.1363 14.7262 14.1363 14.8756V17.4577C14.1364 17.607 14.0103 17.7287 13.8552 17.7287H13.855ZM11.4567 17.1864H13.5738V15.1465H11.4567V17.1864ZM18.1618 17.7288H15.482C15.3267 17.7288 15.2007 17.6072 15.2007 17.4578V14.8756C15.2007 14.726 15.3268 14.6046 15.482 14.6046H17.2935C17.6638 14.6046 17.6637 15.1466 17.2935 15.1466H15.7632V17.1866H17.8802V16.2671C17.8802 15.9103 18.4428 15.9105 18.4428 16.2671V17.4577C18.4432 17.6072 18.317 17.7288 18.1618 17.7288Z" fill="white"/>
<path d="M20.4426 17.427C18.4809 17.427 16.885 15.8893 16.885 13.999C16.885 12.1087 18.4809 10.571 20.4426 10.571C22.4041 10.571 24 12.1087 24 13.999C24 15.8893 22.4041 17.427 20.4426 17.427ZM20.4426 11.1132C18.7912 11.1132 17.4478 12.4078 17.4478 13.999C17.4478 15.5902 18.7914 16.8847 20.4426 16.8847C22.094 16.8847 23.4373 15.5901 23.4373 13.999C23.4373 12.4078 22.094 11.1132 20.4426 11.1132Z" fill="white"/>
<path d="M20.4427 14.2676L19.1717 14.2615C18.8014 14.2597 18.8036 13.7184 19.1743 13.7192L20.1613 13.724V12.0407C20.1613 11.6839 20.7238 11.6841 20.7238 12.0407V13.9965C20.7238 14.1456 20.5979 14.2675 20.4428 14.2675L20.4427 14.2676Z" fill="white"/>
</svg>
