<svg width="40" height="39" viewBox="0 0 40 39" fill="none" xmlns="http://www.w3.org/2000/svg">
<path d="M3.63637 0.739136C1.63727 0.739136 0 2.37978 0 4.383V24.4242C0 26.4274 1.63727 28.0681 3.63637 28.0681H8.18183V33.5339C8.18154 33.7102 8.23233 33.8828 8.32803 34.0308C8.42373 34.1788 8.56023 34.2957 8.72096 34.3675C8.8817 34.4393 9.05977 34.4627 9.23355 34.4351C9.40734 34.4074 9.56938 34.3298 9.70001 34.2116L16.5091 28.0681H29.0909C31.09 28.0681 32.7273 26.4274 32.7273 24.4242V4.383C32.7273 2.37978 31.09 0.739136 29.0909 0.739136H3.63637ZM3.63637 2.56107H29.0909C30.1137 2.56107 30.9091 3.35816 30.9091 4.383V24.4242C30.9091 25.4491 30.1137 26.2462 29.0909 26.2462H16.1609C15.9361 26.2458 15.7191 26.3288 15.5518 26.4794L10 31.486V27.1571C10 26.9155 9.90423 26.6838 9.73374 26.513C9.56326 26.3421 9.33203 26.2462 9.09092 26.2462H3.63637C2.61364 26.2462 1.81818 25.4491 1.81818 24.4242V4.383C1.81818 3.35816 2.61364 2.56107 3.63637 2.56107Z" fill="white"/>
<path d="M35.4545 17.1371C35.2134 17.1371 34.9822 17.233 34.8117 17.4039C34.6412 17.5747 34.5454 17.8064 34.5454 18.048C34.5454 18.2896 34.6412 18.5213 34.8117 18.6922C34.9822 18.863 35.2134 18.959 35.4545 18.959H36.3864C37.3973 18.959 38.1818 19.7452 38.1818 20.7581V30.8243C38.1851 31.0615 38.1409 31.2969 38.0519 31.5167C37.9628 31.7365 37.8307 31.9362 37.6633 32.1039C37.4959 32.2716 37.2967 32.404 37.0773 32.4933C36.858 32.5825 36.6231 32.6268 36.3864 32.6235H34.5454C34.3043 32.6235 34.0731 32.7194 33.9026 32.8903C33.7321 33.0611 33.6364 33.2928 33.6364 33.5344V35.8902L30.6427 32.8904C30.4723 32.7195 30.2411 32.6235 30 32.6235H21.7954C21.5587 32.6268 21.3238 32.5825 21.1044 32.4933C20.8851 32.404 20.6859 32.2716 20.5185 32.1039C20.3511 31.9362 20.219 31.7365 20.1299 31.5167C20.0409 31.2969 19.9967 31.0615 20 30.8243C20 30.5827 19.9042 30.351 19.7337 30.1802C19.5632 30.0093 19.332 29.9133 19.0909 29.9133C18.8498 29.9133 18.6185 30.0093 18.4481 30.1802C18.2776 30.351 18.1818 30.5827 18.1818 30.8243C18.1849 31.7837 18.5666 32.7029 19.2436 33.3814C19.9207 34.0598 20.838 34.4423 21.7954 34.4454H29.6227L33.9027 38.7333C34.0299 38.8607 34.1918 38.9474 34.3681 38.9825C34.5445 39.0177 34.7272 38.9996 34.8933 38.9307C35.0594 38.8618 35.2014 38.745 35.3013 38.5953C35.4012 38.4455 35.4545 38.2694 35.4545 38.0893V34.4454H36.3864C37.3438 34.4423 38.2611 34.0598 38.9381 33.3814C39.6152 32.7029 39.9969 31.7837 40 30.8243V20.7581C39.9969 19.7987 39.6152 18.8795 38.9381 18.2011C38.2611 17.5227 37.3438 17.1402 36.3864 17.1371H35.4545ZM10.9091 8.0274C10.6679 8.0274 10.4367 8.12338 10.2662 8.29422C10.0957 8.46506 9.99996 8.69677 9.99996 8.93837C9.99996 9.17997 10.0957 9.41168 10.2662 9.58252C10.4367 9.75336 10.6679 9.84934 10.9091 9.84934H27.2727C27.5138 9.84934 27.745 9.75336 27.9155 9.58252C28.086 9.41168 28.1818 9.17997 28.1818 8.93837C28.1818 8.69677 28.086 8.46506 27.9155 8.29422C27.745 8.12338 27.5138 8.0274 27.2727 8.0274H10.9091ZM5.4545 8.0274C5.2134 8.0274 4.98217 8.12338 4.81168 8.29422C4.64119 8.46506 4.54541 8.69677 4.54541 8.93837C4.54541 9.17997 4.64119 9.41168 4.81168 9.58252C4.98217 9.75336 5.2134 9.84934 5.4545 9.84934H7.27269C7.51379 9.84934 7.74502 9.75336 7.91551 9.58252C8.086 9.41168 8.18178 9.17997 8.18178 8.93837C8.18178 8.69677 8.086 8.46506 7.91551 8.29422C7.74502 8.12338 7.51379 8.0274 7.27269 8.0274H5.4545ZM5.4545 13.4932C5.2134 13.4932 4.98217 13.5892 4.81168 13.76C4.64119 13.9309 4.54541 14.1626 4.54541 14.4042C4.54541 14.6458 4.64119 14.8775 4.81168 15.0483C4.98217 15.2192 5.2134 15.3151 5.4545 15.3151H21.8182C22.0593 15.3151 22.2905 15.2192 22.461 15.0483C22.6315 14.8775 22.7272 14.6458 22.7272 14.4042C22.7272 14.1626 22.6315 13.9309 22.461 13.76C22.2905 13.5892 22.0593 13.4932 21.8182 13.4932H5.4545ZM25.4545 13.4932C25.2134 13.4932 24.9822 13.5892 24.8117 13.76C24.6412 13.9309 24.5454 14.1626 24.5454 14.4042C24.5454 14.6458 24.6412 14.8775 24.8117 15.0483C24.9822 15.2192 25.2134 15.3151 25.4545 15.3151H27.2727C27.5138 15.3151 27.745 15.2192 27.9155 15.0483C28.086 14.8775 28.1818 14.6458 28.1818 14.4042C28.1818 14.1626 28.086 13.9309 27.9155 13.76C27.745 13.5892 27.5138 13.4932 27.2727 13.4932H25.4545ZM10.9091 18.959C10.6679 18.959 10.4367 19.055 10.2662 19.2258C10.0957 19.3966 9.99996 19.6284 9.99996 19.87C9.99996 20.1116 10.0957 20.3433 10.2662 20.5141C10.4367 20.6849 10.6679 20.7809 10.9091 20.7809H27.2727C27.5138 20.7809 27.745 20.6849 27.9155 20.5141C28.086 20.3433 28.1818 20.1116 28.1818 19.87C28.1818 19.6284 28.086 19.3966 27.9155 19.2258C27.745 19.055 27.5138 18.959 27.2727 18.959H10.9091ZM5.4545 18.959C5.2134 18.959 4.98217 19.055 4.81168 19.2258C4.64119 19.3966 4.54541 19.6284 4.54541 19.87C4.54541 20.1116 4.64119 20.3433 4.81168 20.5141C4.98217 20.6849 5.2134 20.7809 5.4545 20.7809H7.27269C7.51379 20.7809 7.74502 20.6849 7.91551 20.5141C8.086 20.3433 8.18178 20.1116 8.18178 19.87C8.18178 19.6284 8.086 19.3966 7.91551 19.2258C7.74502 19.055 7.51379 18.959 7.27269 18.959H5.4545Z" fill="white"/>
</svg>
